<svg width="60" height="60" viewBox="0 0 60 60" fill="none" xmlns="http://www.w3.org/2000/svg">
<path d="M48.3495 33.7499H11.1565C10.1295 33.7499 9.29688 34.5894 9.29688 35.6249V46.8749C9.29688 47.9105 10.1295 48.7499 11.1565 48.7499H48.3495C49.3766 48.7499 50.2092 47.9105 50.2092 46.8749V35.6249C50.2092 34.5894 49.3766 33.7499 48.3495 33.7499Z" stroke="white" stroke-width="2" stroke-linecap="round" stroke-linejoin="round"/>
<path d="M48.3495 11.25H11.1565C10.1295 11.25 9.29688 12.0895 9.29688 13.125V24.375C9.29688 25.4105 10.1295 26.25 11.1565 26.25H48.3495C49.3766 26.25 50.2092 25.4105 50.2092 24.375V13.125C50.2092 12.0895 49.3766 11.25 48.3495 11.25Z" stroke="white" stroke-width="2" stroke-linecap="round" stroke-linejoin="round"/>
<path d="M41.8403 21.5625C43.3808 21.5625 44.6297 20.3033 44.6297 18.75C44.6297 17.1967 43.3808 15.9375 41.8403 15.9375C40.2997 15.9375 39.0508 17.1967 39.0508 18.75C39.0508 20.3033 40.2997 21.5625 41.8403 21.5625Z" fill="white"/>
<path d="M41.8403 44.0625C43.3808 44.0625 44.6297 42.8033 44.6297 41.25C44.6297 39.6967 43.3808 38.4375 41.8403 38.4375C40.2997 38.4375 39.0508 39.6967 39.0508 41.25C39.0508 42.8033 40.2997 44.0625 41.8403 44.0625Z" fill="white"/>
</svg>
