<svg id="Layer_1" data-name="Layer 1" xmlns="http://www.w3.org/2000/svg" xmlns:xlink="http://www.w3.org/1999/xlink" viewBox="0 0 20 20"><defs><style>.cls-1{fill:none;}.cls-2{clip-path:url(#clip-path);}</style><clipPath id="clip-path"><rect class="cls-1" x="0.99" y="0.99" width="18.16" height="18.16"/></clipPath></defs><g class="cls-2"><path d="M16.89,2.13A1.13,1.13,0,0,1,18,3.26v9.08a1.18,1.18,0,0,1-.33.81,1.14,1.14,0,0,1-.8.33H6a2.27,2.27,0,0,0-1.6.66L2.13,16.41V3.26A1.13,1.13,0,0,1,3.26,2.13ZM3.26,1A2.29,2.29,0,0,0,1,3.26V17.78a.58.58,0,0,0,.1.32.57.57,0,0,0,.25.21.62.62,0,0,0,.33,0A.62.62,0,0,0,2,18.19L5.2,15a1.1,1.1,0,0,1,.8-.34H16.89a2.27,2.27,0,0,0,2.27-2.27V3.26A2.29,2.29,0,0,0,16.89,1Z"/></g></svg>