<svg id="Layer_1" data-name="Layer 1" xmlns="http://www.w3.org/2000/svg" xmlns:xlink="http://www.w3.org/1999/xlink" viewBox="0 0 37 37"><defs><style>.cls-1{fill:none;}.cls-2{clip-path:url(#clip-path);}</style><clipPath id="clip-path"><rect class="cls-1" width="37" height="37"/></clipPath></defs><g class="cls-2"><path d="M6.24,36.41A6,6,0,0,1,2,34.56a6.87,6.87,0,0,1,0-9.68l20.75-22C26-.4,30.91-.11,34.53,3.52A8.85,8.85,0,0,1,37,9.94a9.24,9.24,0,0,1-2.61,6.4L18.74,33a1.16,1.16,0,0,1-1.69-1.59L32.76,14.73a7,7,0,0,0,2-4.82A6.65,6.65,0,0,0,32.9,5.15c-2.22-2.22-5.84-3.38-8.52-.69l-20.75,22a4.55,4.55,0,0,0,0,6.43,3.67,3.67,0,0,0,2.85,1.17,4.78,4.78,0,0,0,3-1.49L26,15c.6-.6,1.8-2.07.58-3.29a1.61,1.61,0,0,0-1.34-.64,2.79,2.79,0,0,0-1.55.91L11.22,25.22a1.16,1.16,0,1,1-1.69-1.59L22,10.39a4.93,4.93,0,0,1,3-1.61,3.9,3.9,0,0,1,3.18,1.31c1.79,1.79,1.57,4.42-.55,6.55L11.1,34.21A7.09,7.09,0,0,1,6.6,36.4Z"/></g></svg>