<svg width="42" height="42" viewBox="0 0 42 42" fill="none" xmlns="http://www.w3.org/2000/svg">
<g clip-path="url(#clip0_220_289)">
<path d="M17.0625 2.625C16.0182 2.625 15.0167 3.03984 14.2783 3.77827C13.5398 4.51669 13.125 5.51821 13.125 6.5625V7.875H3.9375C2.89321 7.875 1.89169 8.28984 1.15327 9.02827C0.414843 9.76669 0 10.7682 0 11.8125L0 32.8125C0 33.8568 0.414843 34.8583 1.15327 35.5967C1.89169 36.3352 2.89321 36.75 3.9375 36.75H38.0625C39.1068 36.75 40.1083 36.3352 40.8467 35.5967C41.5852 34.8583 42 33.8568 42 32.8125V11.8125C42 10.7682 41.5852 9.76669 40.8467 9.02827C40.1083 8.28984 39.1068 7.875 38.0625 7.875H28.875V6.5625C28.875 5.51821 28.4602 4.51669 27.7217 3.77827C26.9833 3.03984 25.9818 2.625 24.9375 2.625H17.0625ZM17.0625 5.25H24.9375C25.2856 5.25 25.6194 5.38828 25.8656 5.63442C26.1117 5.88056 26.25 6.2144 26.25 6.5625V7.875H15.75V6.5625C15.75 6.2144 15.8883 5.88056 16.1344 5.63442C16.3806 5.38828 16.7144 5.25 17.0625 5.25ZM22.0132 23.3992L39.375 18.7714V32.8125C39.375 33.1606 39.2367 33.4944 38.9906 33.7406C38.7444 33.9867 38.4106 34.125 38.0625 34.125H3.9375C3.5894 34.125 3.25556 33.9867 3.00942 33.7406C2.76328 33.4944 2.625 33.1606 2.625 32.8125V18.7688L19.9867 23.3992C20.6507 23.5761 21.3493 23.5761 22.0132 23.3992ZM3.9375 10.5H38.0625C38.4106 10.5 38.7444 10.6383 38.9906 10.8844C39.2367 11.1306 39.375 11.4644 39.375 11.8125V16.0545L21.3386 20.8635C21.1168 20.9227 20.8832 20.9227 20.6614 20.8635L2.625 16.0545V11.8125C2.625 11.4644 2.76328 11.1306 3.00942 10.8844C3.25556 10.6383 3.5894 10.5 3.9375 10.5Z" fill="white"/>
</g>
<defs>
<clipPath id="clip0_220_289">
<rect width="42" height="42" fill="white"/>
</clipPath>
</defs>
</svg>
