<svg width="46" height="46" viewBox="0 0 46 46" fill="none" xmlns="http://www.w3.org/2000/svg">
<path d="M33.0625 33.0625H12.5422L7.52891 5.49844C7.47025 5.16834 7.29806 4.86913 7.04212 4.65257C6.78618 4.436 6.4626 4.31571 6.12734 4.3125H2.875" stroke="white" stroke-width="2" stroke-linecap="round" stroke-linejoin="round"/>
<path d="M14.375 40.25C16.3598 40.25 17.9688 38.641 17.9688 36.6562C17.9688 34.6715 16.3598 33.0625 14.375 33.0625C12.3902 33.0625 10.7812 34.6715 10.7812 36.6562C10.7812 38.641 12.3902 40.25 14.375 40.25Z" stroke="white" stroke-width="2" stroke-linecap="round" stroke-linejoin="round"/>
<path d="M33.0625 40.25C35.0473 40.25 36.6562 38.641 36.6562 36.6562C36.6562 34.6715 35.0473 33.0625 33.0625 33.0625C31.0777 33.0625 29.4688 34.6715 29.4688 36.6562C29.4688 38.641 31.0777 40.25 33.0625 40.25Z" stroke="white" stroke-width="2" stroke-linecap="round" stroke-linejoin="round"/>
<path d="M11.2305 25.875H33.7992C34.4712 25.877 35.1224 25.6422 35.6383 25.2117C36.1543 24.7812 36.502 24.1826 36.6203 23.5211L38.8125 11.5H8.625" stroke="white" stroke-width="2" stroke-linecap="round" stroke-linejoin="round"/>
</svg>
