<svg width="46" height="46" viewBox="0 0 46 46" fill="none" xmlns="http://www.w3.org/2000/svg">
<path d="M2.875 38.8125H43.125" stroke="white" stroke-width="2" stroke-linecap="round" stroke-linejoin="round"/>
<path d="M25.875 38.8125V7.1875C25.875 6.80625 25.7236 6.44062 25.454 6.17103C25.1844 5.90145 24.8187 5.75 24.4375 5.75H7.1875C6.80625 5.75 6.44062 5.90145 6.17103 6.17103C5.90145 6.44062 5.75 6.80625 5.75 7.1875V38.8125" stroke="white" stroke-width="2" stroke-linecap="round" stroke-linejoin="round"/>
<path d="M40.25 38.8125V18.6875C40.25 18.3063 40.0986 17.9406 39.829 17.671C39.5594 17.4015 39.1937 17.25 38.8125 17.25H25.875" stroke="white" stroke-width="2" stroke-linecap="round" stroke-linejoin="round"/>
<path d="M11.5 12.9375H17.25" stroke="white" stroke-width="2" stroke-linecap="round" stroke-linejoin="round"/>
<path d="M14.375 24.4375H20.125" stroke="white" stroke-width="2" stroke-linecap="round" stroke-linejoin="round"/>
<path d="M11.5 31.625H17.25" stroke="white" stroke-width="2" stroke-linecap="round" stroke-linejoin="round"/>
<path d="M31.625 31.625H34.5" stroke="white" stroke-width="2" stroke-linecap="round" stroke-linejoin="round"/>
<path d="M31.625 24.4375H34.5" stroke="white" stroke-width="2" stroke-linecap="round" stroke-linejoin="round"/>
</svg>
