<svg xmlns="http://www.w3.org/2000/svg" viewBox="0 0 14 20">
  <path d="M12.83 10.74c-.28-.57-1.07-1.05-2.12-.24A6.84 6.84 0 0 1 7 11.64a6.84 6.84 0 0 1-3.71-1.14c-1-.81-1.84-.33-2.12.24-.5 1 .06 1.49 1.33 2.3A8.54 8.54 0 0 0 6 14.1l-.8.8-.03.1C4.06 16.07 3 17.14 2.25 17.88a1.14 1.14 0 0 0 0 1.62l.14.16a1.16 1.16 0 0 0 1.64 0l3-3c1.15 1.13 2.24 2.22 3 3a1.16 1.16 0 0 0 1.64 0l.13-.16a1.12 1.12 0 0 0 0-1.62l-3-3-.8-.79A8.35 8.35 0 0 0 11.5 13c1.27-.77 1.83-1.26 1.33-2.26z"/>
  <path d="M7 10.12a5.06 5.06 0 1 0-5.06-5.06A5.05 5.05 0 0 0 7 10.12zm0-7.55a2.49 2.49 0 1 1-2.5 2.49A2.5 2.5 0 0 1 7 2.57z"/>
</svg>