<svg id="Layer_1" data-name="Layer 1" xmlns="http://www.w3.org/2000/svg" viewBox="0 0 22 22"><path d="M17.15,19.11H17C4.21,18.37,2.39,7.54,2.13,4.24a2,2,0,0,1,.09-.76,2.2,2.2,0,0,1,.37-.67,2.16,2.16,0,0,1,.61-.47,1.91,1.91,0,0,1,.73-.21h3.6a1.26,1.26,0,0,1,.73.23A1.21,1.21,0,0,1,8.74,3l1,2.45a1.24,1.24,0,0,1,.06.74,1.28,1.28,0,0,1-.35.67L8.06,8.21a6.19,6.19,0,0,0,1.69,3.26A6.1,6.1,0,0,0,13,13.17l1.41-1.4a1.36,1.36,0,0,1,.67-.35,1.29,1.29,0,0,1,.75.08l2.46,1a1.31,1.31,0,0,1,.59.48,1.27,1.27,0,0,1,.21.73v3.45a2,2,0,0,1-2,2ZM4.09,3.44a.65.65,0,0,0-.65.65v0c.3,3.87,2.22,13,13.67,13.66a1.07,1.07,0,0,0,.25,0,.8.8,0,0,0,.22-.13.62.62,0,0,0,.15-.21.67.67,0,0,0,.07-.24V13.7l-2.46-1-1.88,1.86-.31,0C7.47,13.82,6.7,8.14,6.7,8.09l0-.32L8.52,5.9l-1-2.46Z"/></svg>