<svg xmlns="http://www.w3.org/2000/svg" viewBox="0 0 18 15"><path d="M18 1.78a7.17 7.17 0 0 1-2.12.59A3.77 3.77 0 0 0 17.5.28a7.33 7.33 0 0 1-2.34.92 3.66 3.66 0 0 0-2.7-1.2 3.74 3.74 0 0 0-3.69 3.79 3.55 3.55 0 0 0 .1.86 10.45 10.45 0 0 1-7.62-4 3.94 3.94 0 0 0-.5 1.95A3.82 3.82 0 0 0 2.4 5.75a3.67 3.67 0 0 1-1.68-.47A3.78 3.78 0 0 0 3.69 9a3.93 3.93 0 0 1-1 .13A3.17 3.17 0 0 1 2 9.1a3.7 3.7 0 0 0 3.45 2.63 7.29 7.29 0 0 1-4.57 1.62 8.49 8.49 0 0 1-.88 0A10.3 10.3 0 0 0 5.66 15c6.79 0 10.51-5.77 10.51-10.77v-.49A7.63 7.63 0 0 0 18 1.78z"/></svg>