<svg xmlns="http://www.w3.org/2000/svg" viewBox="0 0 20 12">
  <path d="M17.54 7.6a8.51 8.51 0 0 1 1.92 2.22c.64 1.06-.7 1.14-.7 1.14h-2.58a1.81 1.81 0 0 1-1.28-.39c-1-.66-1.9-2.39-2.59-2.16s-.69 1.78-.69 1.78a.62.62 0 0 1-.16.39.65.65 0 0 1-.53.12H9.78A6.24 6.24 0 0 1 5 8.67C2.55 6.13.39 1.13.39 1.13S.27.83.4.66 1 .5 1 .5h2.73a.72.72 0 0 1 .44.16.89.89 0 0 1 .24.34 17.61 17.61 0 0 0 1 2.13c1.15 2 1.68 2.42 2.05 2.21.6-.31.43-2.81.43-2.81a2.76 2.76 0 0 0-.29-1.31 1.3 1.3 0 0 0-.82-.43c-.16 0 .1-.38.43-.55A6.58 6.58 0 0 1 9.62 0 4.85 4.85 0 0 1 11 .13c1 .23.63 1.12.63 3.24 0 .69-.1 1.63.37 2 .21.14.73 0 2-2.17A17.63 17.63 0 0 0 15.06.89a.89.89 0 0 1 .25-.31 1 1 0 0 1 .38-.08h2.9s.88-.1 1 .29-.33 1.38-1.52 3c-1.92 2.55-2.14 2.31-.53 3.81z" fill-rule="evenodd"/>
</svg>