<svg id="Layer_1" data-name="Layer 1" xmlns="http://www.w3.org/2000/svg" viewBox="0 0 126.21 36.08">
    <defs>
        <style>
            .cls-1 {
                fill: #f8f8f8;
            }
        </style>
    </defs>
    <path class="cls-1"
        d="M24,5.38H10.6V0H29.41V1.38c0,7,.09,14.08,0,21.12A20.51,20.51,0,0,0,32,32.63a19.32,19.32,0,0,1,1.45,3.45L20,31.53V26h4Z" />
    <path class="cls-1" d="M5.22,26.07H15.41v5.34H0V0H5.14c.16,1.41.05,2.86.07,4.29s0,2.83,0,4.24V26.07Z" />
    <path class="cls-1"
        d="M75.76,25.49v-19h.84c2,0,3.91,0,5.86.14,5.46.34,9,4.39,8.63,9.85-.2,3.12-1.29,5.76-4.06,7.44a9.87,9.87,0,0,1-2.74,1.16C81.52,25.77,78.68,25.41,75.76,25.49ZM79.2,22.3c1.31-.06,2.48,0,3.62-.19a5.13,5.13,0,0,0,4.74-4.56,11.8,11.8,0,0,0-.11-3.7,4.54,4.54,0,0,0-2.93-3.46,12.62,12.62,0,0,0-5.32-.66Z" />
    <path class="cls-1"
        d="M126.21,16.05a11.06,11.06,0,0,1-.76,4.33,8.33,8.33,0,0,1-8,5.48,8.17,8.17,0,0,1-8-5.68,11.64,11.64,0,0,1,.62-9.67A8.55,8.55,0,0,1,125.2,11,11.09,11.09,0,0,1,126.21,16.05Zm-14.07-.15A7.79,7.79,0,0,0,113,20a4.82,4.82,0,0,0,4.64,2.61A4.61,4.61,0,0,0,122,19.84a8.85,8.85,0,0,0,0-7.73,4.63,4.63,0,0,0-4.43-2.72A4.79,4.79,0,0,0,113,12.06,7.47,7.47,0,0,0,112.14,15.9Z" />
    <path class="cls-1"
        d="M102.35,17.74l5.2,7.69h-3.61q-2.66-3.6-5.29-7.21H97v7.19H93.72V6.48c3,.07,5.9-.33,8.74.46,3.49,1,4.57,3.82,3.86,6.9a4.86,4.86,0,0,1-2.79,3.33C103.17,17.36,102.8,17.53,102.35,17.74ZM97,14.89c1,0,2,.06,2.93,0a5.84,5.84,0,0,0,1.78-.46A2.21,2.21,0,0,0,103,12.06a2.05,2.05,0,0,0-1.55-2A12,12,0,0,0,97,9.78Z" />
    <path class="cls-1"
        d="M52.3,6.48c1,0,1.77,0,2.56,0l.79,0c0,.42,0,.85,0,1.21,0,3.46,0,6.91,0,10.37a13.24,13.24,0,0,1-.48,3.31,5.68,5.68,0,0,1-3.73,3.91,9.3,9.3,0,0,1-6.37,0c-2.55-.9-3.76-2.89-4.11-5.47a17.24,17.24,0,0,1-.13-2.49c0-3.13,0-6.25,0-9.37V6.56h3.3c0,.41.07.81.07,1.21,0,3.28,0,6.57,0,9.86,0,.42,0,.84,0,1.25a4.07,4.07,0,0,0,6.25,3.25,3.43,3.43,0,0,0,1.7-2.62,14.56,14.56,0,0,0,.12-1.87c0-3.2,0-6.41,0-9.62Z" />
    <path class="cls-1"
        d="M74.59,25.43H71L68.87,20.2H62.46l-2.08,5.21H56.77c2.53-6.34,5-12.57,7.54-18.85H67Zm-8.8-13.35h-.23l-1.8,4.78h3.79Z" />
</svg>