<svg width="28" height="28" viewBox="0 0 28 28" fill="none" xmlns="http://www.w3.org/2000/svg">
<path fill-rule="evenodd" clip-rule="evenodd" d="M14 0.25C6.40625 0.25 0.25 6.40625 0.25 14C0.25 21.5937 6.40625 27.75 14 27.75C21.5937 27.75 27.75 21.5937 27.75 14C27.75 6.40625 21.5937 0.25 14 0.25ZM19.96 11.675C20.0697 11.5496 20.1533 11.4034 20.2057 11.2452C20.2582 11.087 20.2784 10.9199 20.2653 10.7537C20.2522 10.5876 20.206 10.4257 20.1295 10.2777C20.0529 10.1296 19.9475 9.99838 19.8194 9.89168C19.6914 9.78497 19.5433 9.70495 19.3839 9.65633C19.2244 9.6077 19.0569 9.59145 18.8911 9.60853C18.7253 9.62562 18.5646 9.67568 18.4184 9.75579C18.2723 9.8359 18.1436 9.94443 18.04 10.075L12.665 16.5237L9.88375 13.7412C9.648 13.5136 9.33224 13.3876 9.0045 13.3904C8.67675 13.3933 8.36324 13.5247 8.13148 13.7565C7.89972 13.9882 7.76825 14.3018 7.76541 14.6295C7.76256 14.9572 7.88855 15.273 8.11625 15.5087L11.8662 19.2587C11.9891 19.3815 12.1361 19.4773 12.298 19.5401C12.4599 19.6028 12.6331 19.6312 12.8066 19.6233C12.98 19.6154 13.15 19.5715 13.3055 19.4943C13.4611 19.4171 13.5988 19.3084 13.71 19.175L19.96 11.675Z" fill="#0000FF"/>
</svg>
