<svg width="144" height="12" viewBox="0 0 144 12" fill="none" xmlns="http://www.w3.org/2000/svg">
<path d="M0 11.3134L4.77064 0.461914H6.5337L11.3043 11.3134H9.29929L8.19305 8.7166H3.07672L1.97048 11.3134H0ZM3.75083 7.03127H7.48437L5.6176 2.71475L3.75083 7.03127Z" fill="#ADB6BF"/>
<path d="M24.6819 11.6408L23.3855 10.4886C22.4349 11.1592 21.3286 11.5032 20.0841 11.5032C18.442 11.5032 17.0938 10.9701 16.0394 9.88665C14.9851 8.80322 14.4492 7.49623 14.4492 5.93128C14.4492 4.40073 14.9851 3.07654 16.0567 1.99311C17.1284 0.909687 18.4766 0.359375 20.1187 0.359375C21.7607 0.359375 23.109 0.89249 24.1633 1.97592C25.2177 3.05934 25.7536 4.36633 25.7536 5.93128C25.7536 7.16949 25.3906 8.27011 24.6473 9.23316L25.8918 10.2822L24.6819 11.6408ZM20.1187 9.76627C20.8101 9.76627 21.4323 9.5943 21.9682 9.25035L20.1187 7.6854L21.3459 6.29243L23.2127 7.97776C23.5757 7.41025 23.7658 6.73955 23.7658 5.93128C23.7658 4.86505 23.4201 3.9536 22.7287 3.21412C22.0373 2.47464 21.1558 2.0963 20.0841 2.0963C19.0297 2.0963 18.1482 2.45744 17.4568 3.19692C16.7654 3.9364 16.4197 4.84786 16.4197 5.91409C16.4197 6.98032 16.7654 7.89177 17.4568 8.63125C18.1655 9.38793 19.047 9.76627 20.1187 9.76627Z" fill="#ADB6BF"/>
<path d="M35.4337 11.4863C33.9991 11.4863 32.8756 11.0735 32.0632 10.2653C31.2508 9.457 30.8359 8.28759 30.8359 6.73984V0.548828H32.7373V6.67105C32.7373 7.65129 32.9793 8.40797 33.4632 8.94109C33.9472 9.4742 34.6213 9.74936 35.4683 9.74936C36.3325 9.74936 36.9894 9.4914 37.4734 8.97548C37.9573 8.45956 38.1993 7.72008 38.1993 6.73984V0.548828H40.1007V6.65385C40.1007 8.2188 39.6858 9.42261 38.8561 10.2481C38.0265 11.0735 36.8857 11.4863 35.4337 11.4863Z" fill="#ADB6BF"/>
<path d="M46.375 11.3143V0.548828H48.2763V11.3143H46.375Z" fill="#ADB6BF"/>
<path d="M54.6875 11.3143V0.548828H56.5888V9.59458H62.2756V11.3143H54.6875Z" fill="#ADB6BF"/>
<path d="M65.5781 11.3134L70.3488 0.461914H72.1118L76.8825 11.3134H74.8774L73.7712 8.7166H68.6548L67.5486 11.3134H65.5781ZM69.3462 7.03127H73.0798L71.213 2.71475L69.3462 7.03127Z" fill="#ADB6BF"/>
<path d="M81.2578 11.3143V0.548828H83.2801L86.5816 5.63922L89.8657 0.548828H91.888V11.3143H89.9867V3.59274L86.5643 8.66593H86.4951L83.1073 3.62714V11.3143H81.2578Z" fill="#ADB6BF"/>
<path d="M97.625 11.3143V0.548828H105.645V2.23416H99.5263V5.03731H104.954V6.72264H99.5263V9.61178H105.732V11.2971H97.625V11.3143Z" fill="#ADB6BF"/>
<path d="M110.918 11.3143V0.548828H114.963C116.657 0.548828 118.039 1.06475 119.111 2.07938C120.183 3.09402 120.719 4.38382 120.719 5.93157C120.719 7.46213 120.183 8.75192 119.111 9.78375C118.039 10.8156 116.657 11.3143 114.98 11.3143H110.918ZM112.819 9.59458H114.945C116.069 9.59458 116.968 9.25064 117.659 8.57995C118.35 7.89206 118.696 7.015 118.696 5.94877C118.696 4.88254 118.35 4.00548 117.659 3.31759C116.968 2.6297 116.069 2.28575 114.945 2.28575H112.819V9.59458Z" fill="#ADB6BF"/>
<path d="M125.887 11.3143V0.548828H127.788V11.3143H125.887Z" fill="#ADB6BF"/>
<path d="M132.438 11.3134L137.208 0.461914H138.971L143.742 11.3134H141.737L140.631 8.7166H135.514L134.408 11.3134H132.438ZM136.188 7.03127H139.922L138.055 2.71475L136.188 7.03127Z" fill="#ADB6BF"/>
</svg>
