<svg width="60" height="60" viewBox="0 0 60 60" fill="none" xmlns="http://www.w3.org/2000/svg">
<path d="M29.7525 41.25C38.996 41.25 46.4893 33.6948 46.4893 24.375C46.4893 15.0552 38.996 7.5 29.7525 7.5C20.509 7.5 13.0156 15.0552 13.0156 24.375C13.0156 33.6948 20.509 41.25 29.7525 41.25Z" stroke="white" stroke-width="2" stroke-linecap="round" stroke-linejoin="round"/>
<path d="M29.755 31.875C33.8632 31.875 37.1936 28.5171 37.1936 24.375C37.1936 20.2328 33.8632 16.875 29.755 16.875C25.6468 16.875 22.3164 20.2328 22.3164 24.375C22.3164 28.5171 25.6468 31.875 29.755 31.875Z" stroke="white" stroke-width="2" stroke-linecap="round" stroke-linejoin="round"/>
<path d="M29.7539 41.25V48.75" stroke="white" stroke-width="2" stroke-linecap="round" stroke-linejoin="round"/>
<path d="M7.4375 48.75H52.0691" stroke="white" stroke-width="2" stroke-linecap="round" stroke-linejoin="round"/>
</svg>
