<svg width="60" height="60" viewBox="0 0 60 60" fill="none" xmlns="http://www.w3.org/2000/svg">
<path d="M11.1562 33.75C13.1117 33.7438 15.049 34.1276 16.8568 34.8792C18.6645 35.6308 20.307 36.7355 21.6897 38.1296C23.0724 39.5237 24.168 41.1798 24.9135 43.0024C25.659 44.8251 26.0396 46.7784 26.0334 48.75" stroke="white" stroke-width="2" stroke-linecap="round" stroke-linejoin="round"/>
<path d="M11.1562 22.5C18.0612 22.5 24.6833 25.2656 29.5658 30.1884C34.4484 35.1113 37.1913 41.7881 37.1913 48.75" stroke="white" stroke-width="2" stroke-linecap="round" stroke-linejoin="round"/>
<path d="M11.1562 11.2501C16.0414 11.2408 20.8799 12.2074 25.3924 14.0941C29.9049 15.9808 34.002 18.7502 37.447 22.2423C40.9106 25.7157 43.6572 29.8467 45.5285 34.3964C47.3997 38.9462 48.3584 43.8246 48.3492 48.7501" stroke="white" stroke-width="2" stroke-linecap="round" stroke-linejoin="round"/>
<path d="M12.0863 50.625C13.6269 50.625 14.8758 49.3658 14.8758 47.8125C14.8758 46.2592 13.6269 45 12.0863 45C10.5458 45 9.29688 46.2592 9.29688 47.8125C9.29688 49.3658 10.5458 50.625 12.0863 50.625Z" fill="white"/>
</svg>
