<svg width="61" height="60" viewBox="0 0 61 60" fill="none" xmlns="http://www.w3.org/2000/svg">
<path d="M11.6797 43.125V16.875" stroke="white" stroke-width="2" stroke-linecap="round" stroke-linejoin="round"/>
<path d="M48.875 16.875V43.125" stroke="white" stroke-width="2" stroke-linecap="round" stroke-linejoin="round"/>
<path d="M50.7329 9.37509H9.82059C8.79353 9.37509 7.96094 10.2146 7.96094 11.2501V15.0001C7.96094 16.0356 8.79353 16.8751 9.82059 16.8751H50.7329C51.7599 16.8751 52.5925 16.0356 52.5925 15.0001V11.2501C52.5925 10.2146 51.7599 9.37509 50.7329 9.37509Z" stroke="white" stroke-width="2" stroke-linecap="round" stroke-linejoin="round"/>
<path d="M30.2773 43.125V50.625" stroke="white" stroke-width="2" stroke-linecap="round" stroke-linejoin="round"/>
<path d="M30.2779 58.1249C32.332 58.1249 33.9972 56.446 33.9972 54.3749C33.9972 52.3038 32.332 50.6249 30.2779 50.6249C28.2238 50.6249 26.5586 52.3038 26.5586 54.3749C26.5586 56.446 28.2238 58.1249 30.2779 58.1249Z" stroke="white" stroke-width="2" stroke-linecap="round" stroke-linejoin="round"/>
<path d="M7.96094 43.125H52.5925" stroke="white" stroke-width="2" stroke-linecap="round" stroke-linejoin="round"/>
</svg>
